# xmcd
#
# Track frame offsets: 
#        150
#        16534
#        35279
#        57366
#        78908
#        100649
#        120644
#        133653
#        148417
#        169640
#        197562
#        217225
#        233322
#        254987
#        274865
#        290476
#        301862
#
# Disc length: 4236 seconds
#
# Revision: 0
# Processed by: cddbd v1.5.2PL0 Copyright (c) Steve Scherf et al.
# Submitted via: ExactAudioCopy v0.95b4
#
DISCID=ef108a11
DTITLE=Katharina Hagena - Der Geschmack von Apfelkernen
DYEAR=2008
DGENRE=Speech
TTITLE0=Das Heim des großen Vergessens 1
TTITLE1=Das Heim des großen Vergessens 2
TTITLE2=Hühnerhaus
TTITLE3=Drei Mädchen 1
TTITLE4=Drei Mädchen 2
TTITLE5=Drei Mädchen 3
TTITLE6=Hinnerk
TTITLE7=Namen an der Wand
TTITLE8=Wörter
TTITLE9=Sex im Freien
TTITLE10=Berthas Tod
TTITLE11=Die Richtige oder die Falsche 1
TTITLE12=Die Richtige oder die Falsche 2
TTITLE13=Die Richtige oder die Falsche 3
TTITLE14=Spiele im Garten 1
TTITLE15=Spiele im Garten 2
TTITLE16=Spiele im Garten 3
EXTD=
EXTT0=
EXTT1=
EXTT2=
EXTT3=
EXTT4=
EXTT5=
EXTT6=
EXTT7=
EXTT8=
EXTT9=
EXTT10=
EXTT11=
EXTT12=
EXTT13=
EXTT14=
EXTT15=
EXTT16=
PLAYORDER=
